<svg width="20" height="20" viewBox="0 0 20 20" fill="none" xmlns="http://www.w3.org/2000/svg">
<g clip-path="url(#clip0_468_1006)">
<path fill-rule="evenodd" clip-rule="evenodd" d="M16.463 5.1127L10.888 1.9002C10.288 1.5502 9.56304 1.5502 8.96304 1.9002L3.38804 5.1127C2.78804 5.4627 2.42554 6.10019 2.42554 6.78769V13.2252C2.42554 13.9127 2.78804 14.5502 3.38804 14.8877L8.96304 18.1002C9.56304 18.4502 10.288 18.4502 10.888 18.1002L16.463 14.8877C17.063 14.5377 17.4255 13.9002 17.4255 13.2252V6.78769C17.4255 6.10019 17.063 5.4627 16.463 5.1127ZM8.15054 5.6252C9.17554 5.6252 10.0255 6.4627 10.0255 7.5002C10.0255 8.5377 9.17554 9.3752 8.15054 9.3752C7.12554 9.3752 6.27554 8.5377 6.27554 7.5002C6.27554 6.4627 7.11304 5.6252 8.15054 5.6252ZM15.5505 12.9752C15.5505 13.1877 15.438 13.3877 15.2505 13.5002L10.238 16.4002C10.1505 16.4502 10.038 16.4752 9.93804 16.4752C9.83804 16.4752 9.72554 16.4502 9.63804 16.4002L4.62554 13.5002C4.43804 13.3877 4.32554 13.1877 4.32554 12.9752V12.4752L5.35054 11.4502C5.67554 11.1252 6.21304 11.1252 6.52554 11.4502L8.63804 13.5877L12.113 10.1127C12.438 9.7877 12.9755 9.7877 13.3005 10.1127L15.563 12.3752V12.9752H15.5505Z" fill="#8B8EA0"/>
</g>
<defs>
<clipPath id="clip0_468_1006">
<rect width="19.975" height="20" fill="white"/>
</clipPath>
</defs>
</svg>
