<svg width="20" height="21" viewBox="0 0 20 21" fill="none" xmlns="http://www.w3.org/2000/svg">
<g clip-path="url(#clip0_468_1009)">
<path d="M13.8052 14.0452C13.4548 14.2577 13.0543 14.3827 12.6162 14.3827C12.3409 14.3827 12.0655 14.3327 11.8027 14.2327C11.3647 14.7702 10.7139 15.0827 10.013 15.0827C9.88783 15.0827 9.76267 15.0577 9.63751 15.0452L11.2145 18.6827C11.3271 18.9327 11.6901 18.9327 11.7902 18.6827L12.6162 16.5952L14.6187 17.3827C14.8816 17.4827 15.1319 17.2202 15.0192 16.9702L13.8052 14.0702V14.0452Z" fill="#8B8EA0"/>
<path fill-rule="evenodd" clip-rule="evenodd" d="M9.14943 1.77007C9.56245 1.17007 10.4511 1.17007 10.8641 1.77007C11.1519 2.18257 11.7026 2.33257 12.1657 2.12007C12.829 1.82007 13.5925 2.25757 13.6551 2.98257C13.7051 3.48257 14.1056 3.88257 14.6063 3.93257C15.3322 3.99507 15.7702 4.75757 15.4698 5.42007C15.2571 5.88257 15.4073 6.43257 15.8203 6.72007C16.421 7.13257 16.421 8.02007 15.8203 8.43257C15.4073 8.72007 15.2571 9.27007 15.4698 9.73257C15.7702 10.3951 15.3322 11.1576 14.6063 11.2201C14.1056 11.2701 13.7051 11.6701 13.6551 12.1701C13.5925 12.8951 12.829 13.3326 12.1657 13.0326C11.7026 12.8201 11.1519 12.9701 10.8641 13.3826C10.4511 13.9826 9.56245 13.9826 9.14943 13.3826C8.86157 12.9701 8.31089 12.8201 7.84781 13.0326C7.18448 13.3326 6.42102 12.8951 6.35845 12.1701C6.30838 11.6701 5.90788 11.2701 5.40726 11.2201C4.68135 11.1576 4.2433 10.3951 4.54368 9.73257C4.75644 9.27007 4.60626 8.72007 4.19324 8.43257C3.59249 8.02007 3.59249 7.13257 4.19324 6.72007C4.60626 6.43257 4.75644 5.88257 4.54368 5.42007C4.2433 4.75757 4.68135 3.99507 5.40726 3.93257C5.90788 3.88257 6.30838 3.48257 6.35845 2.98257C6.42102 2.25757 7.18448 1.82007 7.84781 2.12007C8.31089 2.33257 8.86157 2.18257 9.14943 1.77007Z" fill="#8B8EA0"/>
<path d="M7.96041 14.2951C7.7852 14.3451 7.60998 14.3701 7.40973 14.3701C6.98419 14.3701 6.59621 14.2576 6.25829 14.0701L5.05678 16.9451C4.94414 17.1951 5.19446 17.4576 5.45729 17.3576L7.45979 16.5701L8.28582 18.6576C8.38595 18.9201 8.7489 18.9201 8.86154 18.6576L9.34965 17.5201L7.9479 14.2951H7.96041Z" fill="#8B8EA0"/>
</g>
<defs>
<clipPath id="clip0_468_1009">
<rect width="20" height="20" fill="white" transform="translate(0 0.0700684)"/>
</clipPath>
</defs>
</svg>
